<mxfile host="65bd71144e">
    <diagram id="6LV8mZ7T7fpRFWswRnrk" name="Page-1">
        <mxGraphModel dx="585" dy="834" grid="1" gridSize="10" guides="1" tooltips="1" connect="1" arrows="1" fold="1" page="1" pageScale="1" pageWidth="850" pageHeight="1100" math="0" shadow="0">
            <root>
                <mxCell id="0"/>
                <mxCell id="1" parent="0"/>
                <mxCell id="3" style="edgeStyle=none;html=1;" edge="1" parent="1" source="2">
                    <mxGeometry relative="1" as="geometry">
                        <mxPoint x="385" y="200" as="targetPoint"/>
                    </mxGeometry>
                </mxCell>
                <mxCell id="2" value="" style="ellipse;fillColor=strokeColor;html=1;" vertex="1" parent="1">
                    <mxGeometry x="370" y="80" width="30" height="30" as="geometry"/>
                </mxCell>
                <mxCell id="11" style="edgeStyle=none;html=1;entryX=0;entryY=0.5;entryDx=0;entryDy=0;" edge="1" parent="1" source="5" target="10">
                    <mxGeometry relative="1" as="geometry"/>
                </mxCell>
                <mxCell id="5" value="tạo mới" style="html=1;align=center;verticalAlign=middle;rounded=1;absoluteArcSize=1;arcSize=10;whiteSpace=wrap;" vertex="1" parent="1">
                    <mxGeometry x="315" y="200" width="140" height="40" as="geometry"/>
                </mxCell>
                <mxCell id="13" style="edgeStyle=none;html=1;" edge="1" parent="1">
                    <mxGeometry relative="1" as="geometry">
                        <mxPoint x="384.5" y="420" as="targetPoint"/>
                        <mxPoint x="384.5" y="340" as="sourcePoint"/>
                        <Array as="points">
                            <mxPoint x="384.5" y="360"/>
                        </Array>
                    </mxGeometry>
                </mxCell>
                <mxCell id="6" value="chờ thanh toán" style="html=1;align=center;verticalAlign=middle;rounded=1;absoluteArcSize=1;arcSize=10;whiteSpace=wrap;" vertex="1" parent="1">
                    <mxGeometry x="310" y="300" width="140" height="40" as="geometry"/>
                </mxCell>
                <mxCell id="8" style="edgeStyle=none;html=1;entryX=0.532;entryY=-0.009;entryDx=0;entryDy=0;entryPerimeter=0;" edge="1" parent="1" target="6">
                    <mxGeometry relative="1" as="geometry">
                        <mxPoint x="385" y="238" as="sourcePoint"/>
                        <mxPoint x="385" y="292" as="targetPoint"/>
                    </mxGeometry>
                </mxCell>
                <mxCell id="9" value="tạo đơn&amp;nbsp;&lt;div&gt;hàng&lt;/div&gt;" style="text;html=1;align=center;verticalAlign=middle;resizable=0;points=[];autosize=1;strokeColor=none;fillColor=none;" vertex="1" parent="1">
                    <mxGeometry x="325" y="123" width="70" height="40" as="geometry"/>
                </mxCell>
                <mxCell id="10" value="Hủy" style="html=1;align=center;verticalAlign=middle;rounded=1;absoluteArcSize=1;arcSize=10;whiteSpace=wrap;" vertex="1" parent="1">
                    <mxGeometry x="540" y="200" width="140" height="40" as="geometry"/>
                </mxCell>
                <mxCell id="12" value="[&lt;span style=&quot;color: rgb(0, 0, 0);&quot;&gt;thanh toán&lt;/span&gt;]" style="text;html=1;align=center;verticalAlign=middle;resizable=0;points=[];autosize=1;strokeColor=none;fillColor=none;" vertex="1" parent="1">
                    <mxGeometry x="450" y="190" width="90" height="30" as="geometry"/>
                </mxCell>
                <mxCell id="14" value="Đang giao" style="html=1;align=center;verticalAlign=middle;rounded=1;absoluteArcSize=1;arcSize=10;whiteSpace=wrap;" vertex="1" parent="1">
                    <mxGeometry x="310" y="420" width="140" height="40" as="geometry"/>
                </mxCell>
                <mxCell id="16" style="edgeStyle=none;html=1;entryX=0;entryY=0.5;entryDx=0;entryDy=0;" edge="1" parent="1" source="15" target="14">
                    <mxGeometry relative="1" as="geometry"/>
                </mxCell>
                <mxCell id="15" value="Hoàn thành" style="html=1;align=center;verticalAlign=middle;rounded=1;absoluteArcSize=1;arcSize=10;whiteSpace=wrap;" vertex="1" parent="1">
                    <mxGeometry x="90" y="420" width="140" height="40" as="geometry"/>
                </mxCell>
                <mxCell id="17" value="Đang&amp;nbsp;&lt;div&gt;giao&lt;/div&gt;" style="text;html=1;align=center;verticalAlign=middle;resizable=0;points=[];autosize=1;strokeColor=none;fillColor=none;rotation=0;" vertex="1" parent="1">
                    <mxGeometry x="325" y="360" width="60" height="40" as="geometry"/>
                </mxCell>
            </root>
        </mxGraphModel>
    </diagram>
</mxfile>